  <svg
        height="32" width="32"
        viewBox="0 0 63 64"
        fill="none"
        xmlns="http://www.w3.org/2000/svg"
      >
        <path
          d="M47.25 47.458C55.9485 38.7595 55.9485 24.6565 47.25 15.958C38.5515 7.25952 24.4485 7.25952 15.75 15.958C7.05151 24.6565 7.05151 38.7595 15.75 47.458C24.4485 56.1565 38.5515 56.1565 47.25 47.458Z"
          stroke="#E9FCFF"
          stroke-width="1.38962"
          stroke-miterlimit="10"
        ></path>
        <path
          d="M10.5366 47.7971V17.5057C10.5366 16.9599 11.1511 16.6391 11.599 16.9495L33.4166 32.0952C33.8041 32.3639 33.8041 32.9368 33.4166 33.2076L11.599 48.3533C11.1511 48.6657 10.5366 48.3429 10.5366 47.7971Z"
          stroke="url(#paint0_linear_53_10115)"
          stroke-width="6.99574"
          stroke-miterlimit="10"
          stroke-linecap="round"
        ></path>
        <path
          d="M18.1915 27.6963C20.1641 27.6963 21.7285 28.7066 21.7285 30.9021C21.7285 33.0976 20.1621 34.2433 18.1915 34.2433H16.8854V37.8677H14.1733V27.6984H18.1915V27.6963Z"
          fill="#E9FCFF"
        ></path>
        
     
        <defs>
          <linearGradient
            id="paint0_linear_53_10115"
            x1="2.23416"
            y1="20.3361"
            x2="26.863"
            y2="44.9649"
            gradientUnits="userSpaceOnUse"
          >
            <stop stop-color="#007EF8"></stop>
            <stop offset="1" stop-color="#FF4A9A"></stop>
          </linearGradient>
        </defs>
      </svg>